<svg xmlns="http://www.w3.org/2000/svg" version="1.1" xmlns:xlink="http://www.w3.org/1999/xlink" width="512" height="512" x="0" y="0" viewBox="0 0 64 64" style="enable-background:new 0 0 512 512" xml:space="preserve"><g><path d="M53.958 7.326a9.828 9.828 0 0 0-11.907-1.024 5.036 5.036 0 0 0-.649-.809c-5.442-4.98-12.387 3.436-6.47 7.823l-1.504 1.568c-4.354-5.993-12.853.976-7.846 6.43a5.054 5.054 0 0 0 .964.743L24.96 23.71a5.09 5.09 0 1 0-6.789 7.077l-1.69 1.762a5.092 5.092 0 1 0-6.62 6.999 4.518 4.518 0 0 0-.862 3.152l.835 7.65a4.528 4.528 0 0 0 2.56 3.613l11.678 5.594a4.573 4.573 0 0 0 5.263-.968 22.028 22.028 0 0 1 9.285-5.948 6.985 6.985 0 0 0 5.077-5.687l3.283-21.85a.98.98 0 0 1 .965-.803 9.666 9.666 0 0 0 6.588-3.137 9.825 9.825 0 0 0-.575-13.838zm-18.357 3.969a3.103 3.103 0 0 1 4.387-4.388c.332.352.662.669.143.99l-3.775 3.934a3.002 3.002 0 0 1-.755-.536zM26.996 19.9c-3.229-3.583 2.751-7.78 4.979-3.501l-3.99 4.158a3.044 3.044 0 0 1-.989-.657zm-8.599 8.598c-3.302-3.788 3.058-7.841 5.095-3.257l-3.852 4.015a3.054 3.054 0 0 1-1.243-.758zm-8.605 4.225a3.103 3.103 0 0 1 5.174 1.406l-3.65 3.804a3.112 3.112 0 0 1-1.524-5.21zm43.267-12.91a7.676 7.676 0 0 1-5.232 2.492 2.975 2.975 0 0 0-2.825 2.502l-3.283 21.85a4.977 4.977 0 0 1-1.056 2.393 5.189 5.189 0 0 1-2.601 1.67 24.014 24.014 0 0 0-10.165 6.478 2.571 2.571 0 0 1-2.961.554l-11.678-5.593a2.538 2.538 0 0 1-1.436-2.025l-.835-7.65a3.256 3.256 0 0 1 1.367-2.743c-.007-.006 29.236-30.467 29.234-30.474 7.26-7.328 18.173 2.68 11.47 10.546z" fill="#000000" opacity="1" data-original="#000000"></path><path d="M46.198 10.586a3.367 3.367 0 0 0-2.909 6.073 3.367 3.367 0 0 0 2.91-6.073zm-.222 3.627a1.367 1.367 0 0 1-2.465-1.182 1.367 1.367 0 0 1 2.465 1.182zM38.268 19.35a3.367 3.367 0 0 0-2.909 6.074 3.367 3.367 0 0 0 2.909-6.074zm-.222 3.628a1.367 1.367 0 0 1-2.465-1.182 1.367 1.367 0 0 1 2.465 1.182zM29.44 28.228a3.367 3.367 0 0 0-2.908 6.074 3.367 3.367 0 0 0 2.908-6.074zm-.221 3.627a1.367 1.367 0 0 1-2.465-1.181 1.367 1.367 0 0 1 2.465 1.181zM22.384 37.48a3.367 3.367 0 0 0-2.91 6.074 3.367 3.367 0 0 0 2.91-6.074zm-.222 3.628a1.367 1.367 0 0 1-2.466-1.18 1.367 1.367 0 0 1 2.466 1.18z" fill="#000000" opacity="1" data-original="#000000"></path></g></svg>
