<svg xmlns="http://www.w3.org/2000/svg" version="1.1" xmlns:xlink="http://www.w3.org/1999/xlink" width="512" height="512" x="0" y="0" viewBox="0 0 60 60" style="enable-background:new 0 0 512 512" xml:space="preserve"><g><path d="M55.254.314c-1.956.335-3.161 1.977-4.436 3.28-.401.402-.544.991-.439 1.532-1.788 1.61-3.801 3.792-5.187 5.271-2.467 2.178-5.962 5.285-8.486 7.324-2.178 2.136-4.359 4.266-6.659 6.274-2.367-2.397-4.564-4.621-6.432-6.515a.95.95 0 0 0-.074-.067l-8.672-7.087c-1.374-1.404-3.554-3.521-5.251-5.188.11-.544-.033-1.139-.437-1.544C7.909 2.291 6.702.649 4.746.314-.496-.925-1.302 4.898 1.763 7.821c.394.349 1.357 1.251 1.743 1.585.486.421 1.179.53 1.782.349l5.21 5.08c-.329-.359 7.26 8.66 7.126 8.533 2.18 2.148 4.343 4.313 6.518 6.467a807.577 807.577 0 0 1-12.751 13.158c-2.194 2.212-7.923 7.98-10.078 10.083-1.149.95-1.284 2.993-.178 4.081.42.432 1.275 1.291 1.693 1.724 1.09 1.142 3.172 1.02 4.157-.133l3.403-3.318c6.413-6.291 13.581-13.123 19.818-19.578 2.295 2.282 4.603 4.553 6.893 6.84A6811.117 6811.117 0 0 1 52.801 58.43c1.14 1.48 3.379 1.646 4.613.191l.606-.601c.395-.45.951-.802 1.263-1.391.576-.965.505-2.26-.17-3.158-.39-.504-1.462-1.496-1.849-1.921-5.413-5.493-13.643-13.819-21.233-21.5 2.243-2.096 4.301-4.377 6.4-6.616a264.404 264.404 0 0 1 5.17-6.645c2.009-2.579 4.544-4.821 7.076-7.039.61.196 1.322.085 1.817-.344.389-.338 1.342-1.237 1.743-1.585 3.065-2.923 2.259-8.747-2.983-7.507zM4.613 8.148c-.319-.336-1.193-1.304-1.526-1.651-.867-.955-1.189-2.173-1.085-3.427.038-.397.077-.553.305-.815.144-.152.335-.261.542-.315 1.422-.336 2.859-.012 3.943 1.047.29.279 1.241 1.187 1.508 1.459.47.468-.26.933-.541 1.243-.637.627-1.579 1.477-2.245 2.092-.255.198-.605.718-.901.368zm11.313 39.383-6.639 6.804-3.318 3.403c-.592.701-1.579.749-2.222.166l-.839-.813c-.35-.397-1.166-.98-1.226-1.554a1.595 1.595 0 0 1 .519-1.567l3.343-3.378c6.356-6.339 13.38-13.299 19.904-19.461 1.14 1.13 2.28 2.261 3.419 3.393-4.398 4.252-8.678 8.621-12.941 13.008zm36.485 1.198a8.045 8.045 0 0 0-2.309 2.477c-.156 1.189 1.994-.738 2.859-1.934l1.62 1.599a8.036 8.036 0 0 0-2.331 2.491c-.157 1.196 2.019-.76 2.874-1.955l1.151 1.136.483.477a8.252 8.252 0 0 0-2.359 2.498c-.158 1.2 2.048-.782 2.893-1.972l.201.198c.469.447.666.652.78 1.068.264 1.019-.444 1.529-1.18 2.279-.404.383-.825.891-1.121 1.049-.866.441-1.565.182-2.261-.614l-1.213-1.206C41.459 45.335 29.589 33.466 18.701 22.396c.191.231-6.954-8.686-6.96-8.683l-.042-.048-.014-.014-4.952-5.078c.304-.341.608-.686.833-.91.296-.323.614-.656.934-.986 1.677 1.71 3.348 3.425 5.046 5.114a.924.924 0 0 0 .073.066l8.622 7.073 22.402 22.129a8.252 8.252 0 0 0-2.243 2.418c-.152 1.161 1.912-.659 2.812-1.856l1.292 1.276a8.07 8.07 0 0 0-2.252 2.438c-.153 1.17 1.929-.679 2.82-1.878l1.302 1.285a8.077 8.077 0 0 0-2.27 2.451c-.154 1.176 1.949-.697 2.832-1.896l1.314 1.298a8.259 8.259 0 0 0-2.295 2.456c-.154 1.179 1.972-.715 2.848-1.91l.605.597 1.005.992zM46.67 16.026a258.77 258.77 0 0 1-5.487 6.369c-1.936 1.79-4.456 4.083-6.511 6.279l-3.393-3.434c1.982-2.274 4.281-4.627 6.196-6.582 2.51-2.084 6.216-4.875 8.854-6.876 1.756-1.671 3.548-3.306 5.187-5.094.316.326.63.655.921.972.225.235.544.593.861.943-2.14 2.488-4.653 4.809-6.627 7.421zm10.242-9.529c-.327.345-1.211 1.321-1.526 1.651-.296.352-.647-.172-.901-.368-.663-.61-1.611-1.468-2.245-2.092-.284-.311-1.01-.775-.542-1.243.268-.284 1.22-1.167 1.508-1.459 1.084-1.06 2.521-1.383 3.943-1.047.207.055.398.163.542.315.228.26.268.417.305.815.104 1.254-.218 2.473-1.085 3.427z" fill="#000000" opacity="1" data-original="#000000"></path></g></svg>
