<svg xmlns="http://www.w3.org/2000/svg" version="1.1" xmlns:xlink="http://www.w3.org/1999/xlink" width="512" height="512" x="0" y="0" viewBox="0 0 511 512" style="enable-background:new 0 0 512 512" xml:space="preserve"><g><path d="M459.336 80.969c-4.29-16.028-13.137-30.492-25.582-41.832a7.5 7.5 0 1 0-10.102 11.086c10.317 9.402 17.649 21.379 21.196 34.625 9.09 33.937-8.04 69.882-40.735 87.84L365.653 29.16c11.597-.246 23.105 1.781 33.706 5.98a7.505 7.505 0 0 0 9.738-4.21 7.503 7.503 0 0 0-4.21-9.735c-13.696-5.425-28.653-7.761-43.594-6.867-4.988-10.707-17.121-16.64-28.918-13.48-12.332 3.304-20.008 15.398-18.102 27.742-19.992 11.715-35.378 29.84-43.035 50.765L45.121 144.047c-11.734 3.355-18.707 15.672-15.547 27.453l4.215 15.73-8.82 2.364C10.563 193.457.5 206.566.5 221.477v174.707a7.5 7.5 0 0 0 15-.012V221.477c0-8.133 5.488-15.286 13.352-17.391l8.824-2.363 4.21 15.726c2.68 9.988 11.856 16.668 21.805 16.668 1.782 0 3.59-.215 5.391-.664l34.395-8.598 13.238 30.438c2.84 6.55 9.144 10.539 15.973 10.539 3.43 0 5.507-.941 8.421-1.633v32.293c0 12.406 10.094 22.5 22.5 22.5h2.387v26.778a7.5 7.5 0 1 0 15 0v-26.778h25.047V504.5c0 4.14 3.36 7.5 7.5 7.5s7.5-3.36 7.5-7.5V318.992h2.387c12.406 0 22.5-10.094 22.5-22.5v-56.91c0-1.148-.04-2.297-.114-3.437l10.247-2.743c8.3-2.222 13.824-10.34 12.851-18.882l-3.434-30.16 31.758-7.942c17.102 14.297 39.489 22.3 62.657 22.45 3.734 9.62 13.05 15.823 23.136 15.823 2.121 0 4.274-.273 6.418-.847 6.403-1.719 11.75-5.824 15.067-11.563 2.582-4.476 3.687-9.527 3.234-14.57 40.68-20.328 62.906-64.48 51.586-106.742zm-141.14-37.172L355.69 183.73c-18.449-1.02-36.015-7.84-49.457-19.347l-5.746-21.442-15.445-57.648c5.902-16.707 17.691-31.39 33.152-41.496zM230.93 296.492c0 4.137-3.368 7.5-7.5 7.5h-59.82c-4.137 0-7.5-3.363-7.5-7.5V254.63a6.643 6.643 0 0 0 0-.395V240.32c0-20.691 16.492-37.8 36.765-38.14 10.137-.2 19.664 3.64 26.871 10.73 5.363 5.274 8.934 11.863 10.41 19.05.016.08.031.161.051.24.477 2.405.723 4.874.723 7.382zm21.254-77.578-9.461 2.531c-2.633-7.16-6.848-13.71-12.457-19.23-10.098-9.93-23.485-15.27-37.641-15.031-28.406.472-51.516 24.312-51.516 53.14v8.348l-7.695 2.062a2.487 2.487 0 0 1-2.945-1.418L114.8 213.29a9.36 9.36 0 0 0-.219-.504l-12.754-29.324a2.465 2.465 0 0 1 .04-2.07 2.489 2.489 0 0 1 1.605-1.328l139.3-37.325a2.449 2.449 0 0 1 2.04.348c.355.238.964.789 1.078 1.781l3.914 34.399c.011.172.035.34.058.511l4.149 36.442a2.515 2.515 0 0 1-1.828 2.695zm11.586-49.59-2.977-26.152a17.466 17.466 0 0 0-7.543-12.488 17.46 17.46 0 0 0-14.367-2.43l-139.29 37.32a17.483 17.483 0 0 0-11.238 9.305 17.466 17.466 0 0 0-.28 14.57l9.331 21.461-31.96 7.992c-3.95.985-8.016-1.41-9.071-5.336l-6.137-22.902c-.004-.023-.008-.047-.015-.07a.602.602 0 0 0-.02-.067l-6.137-22.91c-1.054-3.926 1.27-8.031 5.18-9.148l222.797-63.742 18.21 67.976zm121.796 30.028a9.744 9.744 0 0 1-7.449-.98 9.729 9.729 0 0 1-4.57-5.962l-.75-2.8a8.789 8.789 0 0 0-.176-.65l-43.3-161.6c-1.403-5.231 1.71-10.622 6.937-12.024 5.23-1.402 10.62 1.715 12.023 6.941l.45 1.684c.046.215.101.422.167.625l43.606 162.746c1.402 5.227-1.711 10.617-6.938 12.02zm0 0" fill="#000000" opacity="1" data-original="#000000"></path><path d="M173.496 369.367c-4.14 0-7.5 3.36-7.5 7.5V504.5c0 4.14 3.36 7.5 7.5 7.5s7.5-3.36 7.5-7.5V376.867c0-4.14-3.36-7.5-7.5-7.5zM193.52 215.512c-13.274 0-24.075 10.797-24.075 24.07s10.801 24.074 24.075 24.074c13.273 0 24.074-10.797 24.074-24.074 0-13.273-10.801-24.07-24.074-24.07zm0 33.144c-5.004 0-9.075-4.07-9.075-9.074s4.07-9.07 9.075-9.07c5.003 0 9.074 4.066 9.074 9.07 0 5.004-4.07 9.074-9.074 9.074zm0 0" fill="#000000" opacity="1" data-original="#000000"></path></g></svg>
