<svg xmlns="http://www.w3.org/2000/svg" version="1.1" xmlns:xlink="http://www.w3.org/1999/xlink" width="512" height="512" x="0" y="0" viewBox="0 0 68 68" style="enable-background:new 0 0 512 512" xml:space="preserve"><g><path d="M3.89 37.93c.8.9 1.81 1.62 2.96 1.99 1.81 4.01 4.98 7.37 8.86 9.44.63 1.81 2.21 3.28 4.22 3.91.82.25 1.63.35 2.4.35.21 0 .42-.02.63-.04 4.07 1.86 6.9 2.33 9.65 2.56 3.86.33 5.98.06 9.64-.29 4.02 2.82 8.68.98 9.7-2.57.05-.09.1-.17.15-.26 3.26-1.15 6.11-3.4 8.01-6.3 2.46 1.06 5.89-.47 6.47-3.36.26-1.3-.28-3.02-1.83-4.25 1.67-4.08 1.72-8.79.2-12.93-.75-2.9-2.24-5.75-4.43-8.23-5.29-5.97-11.11-9.5-19.45-11.78-5.68-1.53-15.07-2.41-22.88.18-5.78 1.94-10.77 5.14-12.31 11.04-1.75 3.81-2.43 8.1-1.93 12.27-1.24.5-2.31 1.36-2.57 3.63-.2 1.69.65 3.65 2.51 4.64zM32.34 9.65c2.66-.07 4.62.03 6.99.63 0 .44.61.87-.67 1.87-1.26.97-3.74.83-5.06.04-.93-.56-1.41-1.54-1.26-2.54zm.67 3.92c1.18.65 2.6.85 3.96.72 3.19.8 6.85 2.07 9.78 3.64.71 1.13 2.13 1.84 3.43 2.16 2.52 1.85 5.04 4.48 6.69 7.2-.09 1.19.46 2.6 1.72 3.55.72 1.98 1.07 3.96 1.08 5.89-1.32-.17-2.71.37-3.54 1.43-.84 1.07-1.26 3-.58 4.4-3.7 1.79-9.32 3.02-15.32 2.73-5.77-.28-11.69-1.6-17.11-3.8-3.55-1.45-6.7-3.44-9.24-5.82.07-.07.13-.16.17-.26.54-1.5.22-3.25-.82-4.47-.52-.61-2.32-2.48-4.51-2.28-.2-.43-.38-.87-.56-1.32 1.93.86 4.25.39 5.51-1.13 1.78-2.14 1.32-5.55 3.15-7.65 1.65-1.89 4.48-2.03 6.8-2.9 1.29-.3 2.23-.86 2.87-2.04 1.93-.33 4.12-.35 6.52-.05zm20.78 5.07c-2.65.68-5.26-.46-5.86-1.65-.24-.44-.15-1.24.38-1.82.08-.08.16-.15.25-.22 1.97 1.19 3.5 2.27 5.23 3.69zm5.73 7.19c.89 1.81 1.41 3.13 1.71 4.75-.47-.19-1.17-.5-1.53-.78-.02-.01-.03-.03-.05-.04-1.27-.85-1.55-2.3-1.09-3.03.32-.5.61-.78.96-.9zM8.27 37.05c-.4.06-.68.05-1.52.05-.79-.01-1.87-.14-2.75-.89-.79-.67-1.24-1.77-1.13-2.75.21-1.87 1-2.25 2.41-2.67.72 2.08 1.76 4.25 2.99 6.26zm9.87 7.93c3.09 2.01 6.57 3.45 10.18 4.21-.45 1.1-1.7 1.92-2.87 2.35-1.78.66-3.58.76-5.07.3-1.66-.51-2.97-1.8-3.36-3.27-.06-.22-.09-.45-.11-.69v-.09c-.05-1.07.32-2.19 1.23-2.81zm22.66 6.18c.39.02.78.04 1.17.04 2.61 0 5.21-.39 7.71-1.15 2.32 1.8.25 5.79-3.36 5.7-1.57-.03-3.23-.85-4.43-2.2-.79-.88-1.18-1.52-1.09-2.39zm21.51-5.62c-1.09.13-1.81-.1-2.63-.89 1.86-1.18 3.14-2.58 4.03-4.44 1.11.81 1.57 2.04 1.4 2.87-.24 1.23-1.44 2.29-2.8 2.46zm-5.42-3.67c-.34-.76-.15-2.02.44-2.78.71-.9 2.07-1.24 3.46-.38-1.04 1.16-2.26 2.19-3.9 3.16zM12.73 34.5c-1.5-1.59-2.42-2.93-3.2-4.3.96.2 1.91.95 2.57 1.72.59.69.81 1.68.63 2.58zm9.83 8.38c5.58 2.27 11.67 3.62 17.6 3.91.63.03 1.26.05 1.89.05 4.15 0 8.17-.67 11.98-2 3.09-1.09 5.9-2.85 8.03-5.33.07.04.14.08.23.09.02 0 .03.01.05.02-.98 2.03-2.46 3.41-4.94 4.61-.68.33-.5 1.36.28 1.42-1.74 1.88-3.76 3.45-5.94 4.61-.13-.26-.3-.5-.48-.73.33-.12.66-.25.98-.38.38-.16.56-.6.4-.98s-.6-.56-.98-.4a24.966 24.966 0 0 1-12.98 1.74c-.41-.05-.79.23-.84.64s.23.79.64.84c.28.04.55.05.83.08-.09 1.04.25 1.86.72 2.56-1.61.14-3.23.17-4.82.06-3.2-.21-5.81-.59-8.16-1.21 1.42-.75 2.39-1.8 2.77-2.99.55.09 1.1.17 1.65.23h.08c.38 0 .71-.29.75-.67a.75.75 0 0 0-.67-.82c-.64-.06-1.28-.16-1.91-.27a.722.722 0 0 0-.4-.17c-.1-.01-.19 0-.27.03-4.57-.9-8.96-2.94-12.55-5.88a.76.76 0 0 0-1.06.11.76.76 0 0 0 .11 1.06c.43.35.88.68 1.33 1.01-.66.6-1.13 1.4-1.34 2.31-3.04-2.51-4.94-4.45-6.55-7.97.05-.01.11-.03.17-.04.15.22.3.45.46.67.24.34.71.42 1.05.17.34-.24.42-.71.17-1.05-1.92-2.7-3.54-5.93-4.45-8.88-.02-.05-.05-.09-.07-.13-.41-1.6-.58-3.22-.54-4.81 1.69 8.71 8.61 15.16 16.78 18.49zM40.67 7.64c8.15 2.23 13.58 5.51 18.73 11.33 3.02 3.42 5.76 9.23 4.14 14.85-.02.05-.04.09-.05.15-.36 1.15-.79 2.21-1.76 3.57-.18-.12-.36-.22-.55-.32.04-1.75-.18-3.52-.67-5.31.31.13.63.25.94.36l.03.33a.752.752 0 0 0 1.5-.12c-.27-3.63-1.15-5.49-2.81-8.71a.738.738 0 0 0-1.01-.32c-.37.19-.51.64-.32 1.01 0 .01.01.01.01.02-.59.25-1 .67-1.3 1.08-1.15-1.7-2.84-3.62-4.71-5.25a8.14 8.14 0 0 0 2.29-.54c.26.22.42.4.74.4.69 0 1.02-.86.49-1.31-3.04-2.67-5.06-4.1-8.64-6.12-.36-.2-.82-.08-1.02.28s-.08.82.28 1.02c.08.04.14.08.22.13-.49.53-.79 1.19-.87 1.86-2.18-1.06-4.54-1.92-6.87-2.62.91-.65 1.62-1.56 1.49-2.68.42.11.79-.14.9-.49a.741.741 0 0 0-.49-.94c-3.86-1.24-6.32-1.28-10.64-1.1-.41.02-.73.37-.72.78.02.41.35.74.78.72h.03c-.06.77.13 1.53.5 2.2-1.53-.09-2.97-.03-4.32.14.31-2.08-.59-3.84-1.68-5.65 5.14-.51 10.86.02 15.36 1.25zm-29.46 4.05c3.28-2.78 8.21-4.46 12.51-5.09.17.51 1.47 2.1 1.78 3.94.19 1.12-.08 2.55-1.09 3.23-.66.44-1.57.54-2.59.69-3.52.56-8.12 2.73-9.48 7.04-.34 1.08-.45 2.19-1.02 2.94-.85 1.13-2.81 1.01-3.57-.03-.19-.27-.38-.43-.51-.61-.03-.04-.06-.06-.1-.09-.71-4.21.14-8.67 4.07-12.02zM51.01 63.28a.74.74 0 0 0 .58-.89l-.72-3.45c-.08-.41-.48-.66-.89-.58s-.67.48-.58.89l.72 3.45c.08.4.48.66.89.58zM55.28 55.97a.748.748 0 0 0-1.17.93l2.43 3.03a.748.748 0 0 0 1.17-.93zM62.06 55.4c.76 0 1.04-1 .38-1.39l-3.17-1.9a.751.751 0 1 0-.77 1.29c3.19 1.87 3.19 2 3.56 2z" fill="#000000" opacity="1" data-original="#000000"></path><path d="M10.25 17.76c.3 0 .58-.18.7-.47 1.11-2.75 3.59-4.92 6.45-5.66.4-.1.64-.51.54-.92a.76.76 0 0 0-.92-.54c-3.32.87-6.18 3.38-7.46 6.55-.2.5.16 1.04.69 1.04z" fill="#000000" opacity="1" data-original="#000000"></path></g></svg>
