<svg xmlns="http://www.w3.org/2000/svg" version="1.1" xmlns:xlink="http://www.w3.org/1999/xlink" width="512" height="512" x="0" y="0" viewBox="0 0 512 512" style="enable-background:new 0 0 512 512" xml:space="preserve"><g><path d="M456.3 63.9H55.6C42.1 63.9 31 74.8 31 88.2v335.6c0 13.4 11.1 24.3 24.7 24.3H456.4c13.6 0 24.7-10.9 24.7-24.3V88.2c-.1-13.4-11.2-24.3-24.8-24.3zM60.4 418.7V93.3h58.5v180.5c0 8.1 6.6 14.7 14.7 14.7h2.4v130.2zm104.9 0V288.5h1.3c8.1 0 14.7-6.6 14.7-14.7V93.3h43v180.5c0 8.1 6.6 14.7 14.7 14.7h1.9v130.2zm105.7 0V288.5h1.2c8.1 0 14.7-6.6 14.7-14.7V93.3h43.2v180.5c0 8.1 6.6 14.7 14.7 14.7h1.9v130.2zm105 0V288.5h1.8c8.1 0 14.7-6.6 14.7-14.7V93.3h58.4v325.4z" fill="#000000" opacity="1" data-original="#000000"></path></g></svg>
