<svg xmlns="http://www.w3.org/2000/svg" version="1.1" xmlns:xlink="http://www.w3.org/1999/xlink" width="512" height="512" x="0" y="0" viewBox="0 0 60 60" style="enable-background:new 0 0 512 512" xml:space="preserve"><g><path d="M21.344 13c.219 3.484 5.357 3.523 5.592 0 .072-3.921-5.687-3.78-5.592 0zm1.311 0c.222-1.534 2.187-1.363 2.408 0 .159 1.745-2.469 1.836-2.408 0zM38.936 13c.072-3.92-5.687-3.78-5.592 0 .219 3.484 5.357 3.523 5.592 0zm-1.873 0c.159 1.745-2.469 1.836-2.408 0 .222-1.534 2.187-1.363 2.408 0z" fill="#000000" opacity="1" data-original="#000000"></path><path d="m48.809 33.043-.564.017c-1.275 0-2.768.092-3.701 1.105-.115.116-.208.248-.306.376a48.12 48.12 0 0 1-1.098-6.283c.75.538 1.88.625 2.702.634.43.018.757.042 1.272.042a1.965 1.965 0 0 0 1.775-1.362c.1-.285.092-.601.095-.888.011-.387.003-1.426.017-1.826-.01-.398-.005-1.442-.017-1.826.046-.974-.824-1.939-1.824-1.974-.322-.015-1.276.041-1.599.048-.945-.011-1.943.203-2.685.806l.043-5.817c.56.413 1.274.691 2.154.742.411.03 1.503.065 1.928.099 1.23.047 2.135-1.105 2.006-2.294-.026-1.049-.036-2.97-.166-4.04-.184-.786-.91-1.387-1.71-1.41-.542 0-1.457.086-1.986.091-.9.027-1.634.292-2.207.704l.003-1.364V6.901c-.023-1.26-.939-2.427-2.159-2.745-.645-.168-1.528-.115-2.252-.108-.414-.615-.87-1.089-1.395-1.559C32.73-1.236 24.92-.834 21.488 4.006c-.734-.007-1.624-.057-2.28.111-1.237.322-2.164 1.506-2.188 2.782v1.724l.003 1.34c-.568-.396-1.286-.654-2.167-.68-.522-.01-1.449-.095-1.986-.091-.8.022-1.525.625-1.71 1.41-.13 1.074-.14 2.986-.166 4.04-.129 1.19.776 2.34 2.006 2.294.421-.029 1.522-.068 1.928-.099.86-.049 1.557-.318 2.112-.715.006 2.152.012 4.236.014 5.743-.735-.561-1.698-.768-2.613-.758-1.087-.038-2.398-.286-3.093.818-.373.505-.333 1.153-.335 1.717l-.011 1.217c.01.397.005 1.443.017 1.826.001.287-.005.603.095.888.24.774.976 1.334 1.775 1.362.515 0 .842-.024 1.272-.042.784-.008 1.838-.099 2.586-.571a48.815 48.815 0 0 1-1.085 6.094c-.069-.083-.127-.172-.203-.249-.932-1.015-2.426-1.105-3.701-1.106l-.564-.017c-.96-.161-2.157.733-2.174 1.822l-.017 1.196c.023.702-.007 2.587.08 3.258.144.908 1.022 1.621 1.926 1.574l1.129-.061a5.592 5.592 0 0 0 1.896-.301c.039 1.211.673 2.398 1.701 3.062 1.499.844 2.882 1.961 3.82 3.415 1.166 1.735 1.679 3.851 1.719 5.992a.705.705 0 0 0 .177.466c-.086.975-.139 1.951-.211 2.927-.019.543-.077 1.222-.074 1.771.039 1.038 1.04 1.819 2.053 1.744 4.524.139 9.047.122 13.57-.05 1.094.091 2.124-.88 1.987-1.98-.009-.135-.025-.497-.035-.636a105.146 105.146 0 0 0-.318-4.196c.103-.54.151-1.13.228-1.665a10.466 10.466 0 0 1 1.538-4.256l.011-.017a9.615 9.615 0 0 1 2.271-2.506c.923-.788 2.128-1.106 2.805-2.234.39-.567.552-1.221.551-1.885.474.2.988.312 1.479.312.362.038 1.318.07 1.693.1 1.075.062 2.022-.934 1.962-2.01.019-.371.038-2.404.044-2.822l-.017-1.195c-.016-1.092-1.215-1.98-2.174-1.822zm-3.248-10.151c.101.018 1.451.03 1.453.067.005.008.01.02.009.029-.003.025-.005-.026-.005.045l-.006.609c-.016.757-.002 2.586.014 3.363.011.011-.005.044-.022.053l-1.162.048c-.903.04-1.405.117-1.98-.168-.354-.149-.654-.408-.898-.727a47.17 47.17 0 0 1-.088-2.258c.572-.871 1.609-1.227 2.686-1.061zm-1.43-12.068c.774-.245 2.082-.022 2.884-.01.178.148.074-.023.075.615-.029.744-.116 2.979-.089 3.634-.422.018-1.52.083-1.928.098a2.216 2.216 0 0 1-2.106-.989c-.017-.024-.024-.052-.04-.076l.006-2.267c.265-.465.677-.843 1.198-1.006zm-29.203 4.338c-.412-.017-1.501-.083-1.928-.099.026-.668-.06-2.877-.089-3.634.001-.635-.103-.469.075-.615.337-.039 1.491-.068 1.87-.098.915-.138 1.723.347 2.171 1.056l.007 2.402a2.216 2.216 0 0 1-2.106.989zm1.211 11.776c-.724.396-2.178.105-3.142.12-.017-.009-.033-.042-.022-.053L13 24.859c.003-.435-.026-1.498-.014-1.9.016-.031 1.342-.053 1.453-.067 1.023-.158 2.013.15 2.6.927a48.61 48.61 0 0 1-.111 2.533 2.203 2.203 0 0 1-.791.586zm-5.133 12.169c-.05-.028-.07-.069-.053-.106l.003-.119c.032-.995.05-2.894.034-3.883-.007.001 0-.011.003-.023-.014-.029 1.618-.059 1.891-.083.906-.155 1.857.458 2.325 1.228-.273.967-.57 1.928-.902 2.878-.976.42-2.367.119-3.302.108zm25.992 19.045a197.304 197.304 0 0 0-13.782-.059c-.107-.011-.321.066-.367-.079-.07-1.389-.156-2.881-.272-4.294a870.575 870.575 0 0 0 14.974-.333c-.142 1.511-.25 3.131-.335 4.632-.033.094-.125.154-.218.132zm7.085-16.523c-.521.859-1.707 1.238-2.44 1.944-.415.332-.791.703-1.148 1.092-.611-.107-1.543-.152-2.547-.158-2.084-.012-4.44.141-4.689.235-.421.281-.178.466.43.582s1.582.163 2.623.169a51.317 51.317 0 0 0 3.571-.112c-.302.392-.571.806-.818 1.235-.803-.081-1.725-.109-2.678-.112-1.918-.008-4.018.121-4.712.239-.404.262-.213.43.304.549.274.063.67.109 1.113.138.782.05 1.706.059 2.205.066 1.156.017 2.385.013 3.327-.044a11.59 11.59 0 0 0-.484 1.204 34.65 34.65 0 0 0-3.314-.155c-1.752-.004-3.595.102-4.735.242-.387.242-.25.401.178.516.308.083.804.138 1.354.17 1.049.059 2.29.058 2.658.07 1.251.039 2.558.048 3.611-.056-.11.418-.192.843-.254 1.271a47.268 47.268 0 0 0-2.917-.189c-.45-.028-.9-.031-1.349-.025l-.063-.001h-.051c-1.584 0-3.168.081-4.751.244-.37.222-.288.376.052.483s.937.167 1.595.201c.406.021.833.032 1.239.039.243.009.48.015.702.019l.292.009c.157.008.32.013.489.012.021 0 .041-.003.062-.003h.068c.037.001.074-.002.11-.002h.019c.719.027 1.44.003 2.157-.048.76-.025 1.52-.071 2.279-.151-.012.128-.035.255-.043.383-.054.333.011.606.108.95-5.077-.153-10.001-.288-14.926-.354-.106-3.333-1.57-6.742-4.253-8.832-1.009-.91-2.819-1.399-2.72-3.04-.038-.342.306-1.062.39-1.36a48.185 48.185 0 0 0 2.415-10.031c.567-3.977.392-9.579.422-13.63l.017-6.765.007-1.658c.066-.688.573-1.058 1.322-.973l1.691.004c.363.001.718-.205.892-.551 1.431-2.362 4.373-3.493 7.109-3.465 2.741-.04 5.706 1.077 7.144 3.448.16.313.48.531.856.529l1.691-.004c.759-.079 1.298.302 1.361 1.011.01 1.03.016 7.278.024 8.424l.05 6.765c-.028 5.71.925 11.475 2.865 16.855.362.816.633 1.813.091 2.621zm4.912-2.522c-.98.011-2.462.353-3.441-.162a5.61 5.61 0 0 0-.163-.427 48.774 48.774 0 0 1-.688-2.234c.454-.958 1.442-1.5 2.414-1.391l1.129.046c.33.011.924.022.762.036.004.013.011.025.003.023-.011 1.059-.01 2.965.044 4.024-.005.025-.013.063-.06.084z" fill="#000000" opacity="1" data-original="#000000"></path><path d="M38.936 25c.072-3.92-5.687-3.78-5.592 0 .219 3.484 5.357 3.523 5.592 0zm-4.281 0c.222-1.534 2.187-1.363 2.408 0 .159 1.745-2.469 1.836-2.408 0zM35.344 37c.219 3.484 5.357 3.523 5.592 0 .072-3.92-5.687-3.78-5.592 0zm1.311 0c.222-1.534 2.187-1.363 2.408 0 .159 1.745-2.469 1.836-2.408 0zM21.064 25c.235 3.523 5.372 3.485 5.592 0 .096-3.779-5.664-3.922-5.592 0zm1.873 0c.221-1.362 2.186-1.534 2.408 0 .061 1.836-2.566 1.746-2.408 0zM19.064 37c.235 3.523 5.372 3.485 5.592 0 .096-3.779-5.664-3.922-5.592 0zm1.873 0c.221-1.362 2.186-1.534 2.408 0 .061 1.836-2.566 1.746-2.408 0z" fill="#000000" opacity="1" data-original="#000000"></path></g></svg>
